<svg id="Layer_1" data-name="Layer 1" xmlns="http://www.w3.org/2000/svg" viewBox="0 0 234 50"><defs><style>.cls-1{fill:none;}.cls-2{fill:#7fb927;}.cls-3{fill:#4d4c4c;}</style></defs><title>logo-goognet-footer</title><path class="cls-1" d="M150.75,47.68v.07a4.34,4.34,0,0,0,.53,0h.1v-.11Z"/><path class="cls-2" d="M9.36,7.35a9.5,9.5,0,0,0-6.57,2.4A8.24,8.24,0,0,0,.52,13.92,33.48,33.48,0,0,0,0,20.55c0,2.8,0,6.25,1.32,8.79A9,9,0,0,0,2.79,31.4,8.83,8.83,0,0,0,9.3,33.8a8,8,0,0,0,6.52-2.73v2.78c0,3.82.23,4.27-3.22,4.27H6.09C1,38.12.31,40.66.31,44H14.67c3.16,0,5.29-.49,6.88-3.38,1-1.6,1.07-4.25,1.07-6.66V7.35ZM15.77,19.1c0,2.16,0,4.77-.84,6.67-.59,1.26-1.8,1.9-3.62,1.9a3.94,3.94,0,0,1-2.86-1,4.44,4.44,0,0,1-1.29-2.49,18.58,18.58,0,0,1-.3-3.66,12.6,12.6,0,0,1,.87-5.21c.58-1.25,1.77-1.87,3.58-1.87h4.46Z"/><path class="cls-2" d="M52.1,13.64a9.83,9.83,0,0,0-2.43-4.25A11.18,11.18,0,0,0,41.17,6a11.11,11.11,0,0,0-8.45,3.35,9.45,9.45,0,0,0-1.5,2,10.37,10.37,0,0,0-1,2.33,16,16,0,0,0-.49,2.91c-.1,1.1-.14,2.22-.14,3.34s0,2.22.14,3.34a15.24,15.24,0,0,0,.51,3,11.1,11.1,0,0,0,1,2.35,9.55,9.55,0,0,0,1.49,2A11.08,11.08,0,0,0,41.17,34a11.15,11.15,0,0,0,8.5-3.36,9.81,9.81,0,0,0,1.86-2.75,11.83,11.83,0,0,0,1-3.43A30.92,30.92,0,0,0,52.77,20,24.1,24.1,0,0,0,52.1,13.64ZM45.61,24.11a4.59,4.59,0,0,1-1.26,2.51,4.36,4.36,0,0,1-3.18,1.21A4.31,4.31,0,0,1,38,26.62,5,5,0,0,1,36.78,24a21.6,21.6,0,0,1-.3-4.05,20.92,20.92,0,0,1,.3-4A5,5,0,0,1,38,13.37a4.35,4.35,0,0,1,3.14-1.2,4.39,4.39,0,0,1,3.18,1.2,4.63,4.63,0,0,1,1.26,2.49,22.11,22.11,0,0,1,.3,4.1A22.71,22.71,0,0,1,45.61,24.11Z"/><path class="cls-3" d="M212.36,7.59l-11,25.53c3.85,0,8.15-2.66,9.55-5.9l11-25.53C218.06,1.69,213.76,4.34,212.36,7.59Z"/><path class="cls-3" d="M150.75,47.75v.77l.18,0c.38,0,.56.12.56.34s-.2.38-.61.38l-.33,0v.51h.37c.89,0,1.33-.29,1.33-.89a.63.63,0,0,0-.23-.53,1,1,0,0,0-.64-.18v-.33h-.1A4.34,4.34,0,0,1,150.75,47.75Z"/><path class="cls-3" d="M128.58,41.87a2.9,2.9,0,0,0-2.25-.92,3.05,3.05,0,0,0-2.38.95,3.58,3.58,0,0,0-.88,2.55,3.44,3.44,0,0,0,.86,2.42,3,3,0,0,0,2.29.93,3,3,0,0,0,2.34-.95,3.63,3.63,0,0,0,.87-2.56A3.47,3.47,0,0,0,128.58,41.87Zm-.85,4.32a1.87,1.87,0,0,1-1.5.64,1.78,1.78,0,0,1-1.45-.67,2.73,2.73,0,0,1-.56-1.78,2.69,2.69,0,0,1,.57-1.79,1.87,1.87,0,0,1,1.48-.68,1.79,1.79,0,0,1,1.47.65,2.77,2.77,0,0,1,.54,1.83A2.67,2.67,0,0,1,127.73,46.19Z"/><polygon class="cls-3" points="133.94 41.06 132.84 41.06 132.84 47.68 136.51 47.68 136.51 46.76 133.94 46.76 133.94 41.06"/><path class="cls-3" d="M119.57,44.77a2.65,2.65,0,0,0-.54-.44c-.2-.13-.42-.26-.65-.38l-.6-.27a3.22,3.22,0,0,1-.43-.27.82.82,0,0,1-.27-.29.8.8,0,0,1-.09-.39.68.68,0,0,1,.12-.4.91.91,0,0,1,.31-.27,1.46,1.46,0,0,1,.43-.15,2.81,2.81,0,0,1,.49,0,2.42,2.42,0,0,1,1.45.41V41.18a3.74,3.74,0,0,0-1.51-.23,3.36,3.36,0,0,0-.9.11,2.48,2.48,0,0,0-.78.33A1.79,1.79,0,0,0,116,42a1.7,1.7,0,0,0-.08,1.47,1.67,1.67,0,0,0,.33.5,2.62,2.62,0,0,0,.51.41,6.16,6.16,0,0,0,.63.37L118,45a2.92,2.92,0,0,1,.47.28,1,1,0,0,1,.32.32.75.75,0,0,1,.11.4.77.77,0,0,1-.34.68,1.87,1.87,0,0,1-1,.23,3.44,3.44,0,0,1-.43,0,3.59,3.59,0,0,1-.47-.12,3,3,0,0,1-.45-.19,1.64,1.64,0,0,1-.36-.25v1.13a1.54,1.54,0,0,0,.36.16c.15.05.31.08.48.12l.5.07.41,0a4.67,4.67,0,0,0,.94-.1,2.48,2.48,0,0,0,.8-.32,1.53,1.53,0,0,0,.54-.56,1.76,1.76,0,0,0,.07-1.52A1.88,1.88,0,0,0,119.57,44.77Z"/><path class="cls-3" d="M143.66,45c0,1.25-.48,1.88-1.45,1.88s-1.52-.65-1.52-1.95V41.06h-1.1v4c0,1.79.84,2.69,2.53,2.69s2.64-.93,2.64-2.79V41.06h-1.1Z"/><path class="cls-3" d="M149.08,41.93a3.48,3.48,0,0,0-1,2.57,3.33,3.33,0,0,0,.87,2.39,2.89,2.89,0,0,0,1.78.86v-.07h.63v.11a4,4,0,0,0,1.76-.38v-1a3,3,0,0,1-1.63.44,2.2,2.2,0,0,1-1.64-.65,2.42,2.42,0,0,1-.62-1.74,2.51,2.51,0,0,1,.67-1.84,2.31,2.31,0,0,1,1.74-.69,2.81,2.81,0,0,1,1.48.4V41.22a4.06,4.06,0,0,0-1.59-.27A3.31,3.31,0,0,0,149.08,41.93Z"/><rect class="cls-3" x="199.69" y="41.06" width="1.13" height="6.62"/><path class="cls-3" d="M178.87,41.06H177v6.62h1.83a3.9,3.9,0,0,0,2.73-.93,3.2,3.2,0,0,0,1-2.46Q182.53,41.07,178.87,41.06Zm1.86,5.06a2.47,2.47,0,0,1-1.8.63h-.88V42H179c1.61,0,2.41.77,2.41,2.32A2.44,2.44,0,0,1,180.73,46.12Z"/><rect class="cls-3" x="185.94" y="41.06" width="1.13" height="6.62"/><polygon class="cls-3" points="221.35 41.06 220.25 41.06 220.25 47.68 223.91 47.68 223.91 46.76 221.35 46.76 221.35 41.06"/><polygon class="cls-3" points="204 42 205.9 42 205.9 47.68 207 47.68 207 42 208.91 42 208.91 41.06 204 41.06 204 42"/><path class="cls-3" d="M214.68,41.06h-1.24L211,47.68h1.2l.57-1.68h2.61l.59,1.68h1.21Zm-1.66,4,.91-2.64A3.6,3.6,0,0,0,214,42h0a2.85,2.85,0,0,0,.09.42l.92,2.64Z"/><path class="cls-3" d="M193.58,45H195v1.58a2.61,2.61,0,0,1-1.19.26,2,2,0,0,1-1.58-.65,2.67,2.67,0,0,1-.58-1.8,2.51,2.51,0,0,1,.68-1.81,2.33,2.33,0,0,1,1.73-.7,3.21,3.21,0,0,1,1.82.51V41.27A4.63,4.63,0,0,0,194,41a3.47,3.47,0,0,0-2.53,1,3.42,3.42,0,0,0-1,2.53,3.27,3.27,0,0,0,.91,2.42,3.19,3.19,0,0,0,2.37.92,4.71,4.71,0,0,0,2.31-.57V44.09h-2.49Z"/><path class="cls-3" d="M159.58,41.06h-1.24l-2.48,6.62h1.2l.57-1.68h2.61l.59,1.68H162Zm-1.66,4,.91-2.64a3.6,3.6,0,0,0,.09-.42h0a2.85,2.85,0,0,0,.09.42L160,45.1Z"/><path class="cls-3" d="M158.3,40a1.26,1.26,0,0,1,.56.21,1.78,1.78,0,0,0,.76.22.75.75,0,0,0,.64-.34,1.49,1.49,0,0,0,.24-.87H160c0,.34-.12.52-.37.52a1.14,1.14,0,0,1-.58-.21,1.54,1.54,0,0,0-.72-.23.75.75,0,0,0-.66.33,1.48,1.48,0,0,0-.24.88h.53Q157.91,40,158.3,40Z"/><path class="cls-3" d="M170.09,41.87a2.9,2.9,0,0,0-2.25-.92,3.07,3.07,0,0,0-2.38.95,3.62,3.62,0,0,0-.88,2.55,3.44,3.44,0,0,0,.86,2.42,3,3,0,0,0,2.3.93,3,3,0,0,0,2.33-.95,3.63,3.63,0,0,0,.87-2.56A3.42,3.42,0,0,0,170.09,41.87Zm-.85,4.32a1.85,1.85,0,0,1-1.5.64,1.78,1.78,0,0,1-1.45-.67,2.72,2.72,0,0,1-.55-1.78,2.69,2.69,0,0,1,.57-1.79,1.85,1.85,0,0,1,1.48-.68,1.82,1.82,0,0,1,1.47.65,2.83,2.83,0,0,1,.53,1.83A2.67,2.67,0,0,1,169.24,46.19Z"/><path class="cls-3" d="M179.07,32.5l.3,0V29.31l-.38,0-.53,0h-.62a6,6,0,0,1-1.4-.14,1.56,1.56,0,0,1-.89-.51,3,3,0,0,1-.63-1.29,10.87,10.87,0,0,1-.2-2.35v-15h4.06V6.83h-4.06V.28h-3.25V6.83h-3.15v3.25h3.15v14.8a29.83,29.83,0,0,0,.16,3.27,6.55,6.55,0,0,0,.72,2.45,3.68,3.68,0,0,0,1.7,1.54,6.87,6.87,0,0,0,2.8.49l1.11,0C178.33,32.58,178.7,32.54,179.07,32.5Z"/><path class="cls-3" d="M135.85,32.3V15.55c0-5.44-2.08-9.38-8-9.38a16.11,16.11,0,0,0-2,.12,8.4,8.4,0,0,0-2.25.59,11,11,0,0,0-2.41,1.35l-.33.25L119.33,9.7V6.83h-3.25V32.3h3.25V14l.25-.28a16.88,16.88,0,0,1,3.61-3.08,7.73,7.73,0,0,1,6.54-.82,3.67,3.67,0,0,1,1.65,1.11,4.66,4.66,0,0,1,.92,1.93,12.4,12.4,0,0,1,.3,2.91V32.3Z"/><path class="cls-3" d="M164.63,19.51a18.2,18.2,0,0,0-.79-5.54,12.06,12.06,0,0,0-2.28-4.21A9.9,9.9,0,0,0,158,7.1a11.76,11.76,0,0,0-4.72-.93,11.29,11.29,0,0,0-4.62.93A10.34,10.34,0,0,0,145,9.77,12.14,12.14,0,0,0,142.65,14a17.62,17.62,0,0,0-.81,5.54,17.35,17.35,0,0,0,.85,5.64,12,12,0,0,0,2.42,4.24,10.26,10.26,0,0,0,3.76,2.65,12.68,12.68,0,0,0,4.83.91,13.28,13.28,0,0,0,3.65-.5A9.9,9.9,0,0,0,160.44,31a8.87,8.87,0,0,0,2.29-2.4,9.05,9.05,0,0,0,1.3-3.24l.08-.42h-3.29l0,.31a3.61,3.61,0,0,1-.75,1.88,5.86,5.86,0,0,1-1.64,1.42,8.23,8.23,0,0,1-2.23.88,10.31,10.31,0,0,1-2.47.3,9,9,0,0,1-3.25-.59,7.22,7.22,0,0,1-2.6-1.76,9.16,9.16,0,0,1-1.84-3,13.17,13.17,0,0,1-.74-2.82l-.17-1.11h19.54ZM145.1,17.19l.31-1.21a11.13,11.13,0,0,1,.72-2,8.21,8.21,0,0,1,1.78-2.54,6.74,6.74,0,0,1,2.38-1.49,8.59,8.59,0,0,1,2.93-.49,7.48,7.48,0,0,1,5.3,2A9.23,9.23,0,0,1,161,16l.31,1.21Z"/><path class="cls-2" d="M200.28,7.59l-11,25.53c3.86,0,8.16-2.66,9.56-5.9l11-25.53C206,1.69,201.68,4.34,200.28,7.59Z"/><path class="cls-2" d="M223,27.22,234,1.69c-3.85,0-8.15,2.65-9.55,5.9l-11,25.53C217.28,33.12,221.58,30.46,223,27.22Z"/><path class="cls-2" d="M80.54,13.64A10,10,0,0,0,78.1,9.39,11.16,11.16,0,0,0,69.6,6a11.11,11.11,0,0,0-8.45,3.35,9.81,9.81,0,0,0-1.5,2,10.84,10.84,0,0,0-1,2.33,16.85,16.85,0,0,0-.5,2.91c-.09,1.1-.14,2.22-.14,3.34s.05,2.22.14,3.34a16,16,0,0,0,.52,3,10.6,10.6,0,0,0,1,2.35,9.5,9.5,0,0,0,1.48,2A11.08,11.08,0,0,0,69.6,34a11.13,11.13,0,0,0,8.5-3.36A9.64,9.64,0,0,0,80,27.85a12.15,12.15,0,0,0,1-3.43A32.55,32.55,0,0,0,81.2,20,24.6,24.6,0,0,0,80.54,13.64ZM74,24.11a4.65,4.65,0,0,1-1.25,2.51,4.38,4.38,0,0,1-3.19,1.21,4.29,4.29,0,0,1-3.13-1.21A4.93,4.93,0,0,1,65.21,24a22.49,22.49,0,0,1-.3-4.05,21.77,21.77,0,0,1,.3-4,4.94,4.94,0,0,1,1.26-2.6,4.32,4.32,0,0,1,3.13-1.2,4.42,4.42,0,0,1,3.19,1.2A4.69,4.69,0,0,1,74,15.86a21.27,21.27,0,0,1,.3,4.1A21.85,21.85,0,0,1,74,24.11Z"/><path class="cls-2" d="M95.86,7.35a9.46,9.46,0,0,0-6.56,2.4A8.24,8.24,0,0,0,87,13.92a32.62,32.62,0,0,0-.53,6.63c0,2.8,0,6.25,1.32,8.79A9.36,9.36,0,0,0,89.3,31.4a8.81,8.81,0,0,0,6.51,2.4,8,8,0,0,0,6.51-2.73v2.78c0,3.82.24,4.27-3.22,4.27H92.59c-5.13,0-5.77,2.54-5.77,5.88h14.36c3.15,0,5.29-.49,6.88-3.38,1-1.6,1.07-4.25,1.07-6.66V7.35Zm6.41,11.75c0,2.16,0,4.77-.83,6.67-.6,1.26-1.8,1.9-3.62,1.9a4,4,0,0,1-2.87-1,4.5,4.5,0,0,1-1.29-2.49,19.37,19.37,0,0,1-.3-3.66,12.41,12.41,0,0,1,.88-5.21c.57-1.25,1.77-1.87,3.58-1.87h4.45Z"/></svg>